<svg width="39" height="49" viewBox="0 0 39 49" fill="none" xmlns="http://www.w3.org/2000/svg">
<path d="M38.2222 0.00812449C35.6409 0.722343 15.7402 6.44047 10.8194 7.82078C10.7279 7.84644 10.6472 7.9012 10.5896 7.97678C10.532 8.05236 10.5005 8.14465 10.5 8.23969V35.2553C10.5001 35.3006 10.4862 35.3448 10.4601 35.3818C10.4341 35.4188 10.3972 35.4469 10.3545 35.462L7.30844 36.5066C5.23031 37.3203 0 38.3309 0 42.9805C0 46.8677 2.69391 48.6177 5.01594 48.9173C5.29807 48.968 5.58362 48.9972 5.87016 49.0048C6.67625 49.0048 9.84922 48.2305 11.6998 47.0273C14 45.5278 14 45.5005 14 41.563V18.5942C14 18.4958 14.0678 18.5023 14.1619 18.4772L34.7244 12.7984C34.7575 12.7893 34.7923 12.7881 34.826 12.7949C34.8596 12.8018 34.8912 12.8164 34.9181 12.8377C34.9451 12.859 34.9666 12.8864 34.9811 12.9175C34.9955 12.9487 35.0023 12.9829 35.0011 13.0172V30.0294C35.001 30.075 34.9866 30.1195 34.9599 30.1566C34.9332 30.1937 34.8956 30.2215 34.8523 30.2361C33.8789 30.5642 32.7491 30.947 31.9561 31.2336C28.5895 32.4498 24.5 33.2122 24.5 37.6255C24.5 41.8375 27.5909 43.5952 29.5641 43.7319C30.3433 43.7909 31.1268 43.7542 31.897 43.6225C32.8814 43.4716 34.5319 42.9772 36.0686 41.9972C38.5 40.4462 38.5 40.4156 38.5 35.8755V0.219218C38.5001 0.185411 38.4923 0.152047 38.4773 0.121746C38.4623 0.0914442 38.4405 0.06503 38.4136 0.0445764C38.3867 0.0241229 38.3554 0.0101867 38.3222 0.00386204C38.289 -0.00246259 38.2547 -0.00100356 38.2222 0.00812449Z" fill="black"/>
</svg>
